<svg version="1.2" xmlns="http://www.w3.org/2000/svg" viewBox="0 0 128 128" width="128" height="128"><style>.a{fill:#fff}</style><path class="a" d="m105.3 30.6q-0.2-0.1-0.3-0.3-0.1-0.1-0.3-0.1-0.2-0.1-0.3-0.2-0.2 0-0.4 0h-16.2c-0.8 0-1.4 0.5-1.5 1.3l-6.3 31.8-8.8-32q-0.1-0.2-0.3-0.5 0 0 0 0 0 0-0.1-0.1-0.2-0.2-0.4-0.3-0.1 0-0.1-0.1-0.3-0.1-0.6-0.1h-11.8q-0.3 0-0.6 0.1-0.1 0.1-0.1 0.1-0.3 0.1-0.4 0.3-0.1 0.1-0.1 0.1 0 0 0 0-0.2 0.3-0.3 0.5l-8.8 32-6.3-31.8q0-0.3-0.2-0.5-0.1-0.3-0.3-0.4-0.2-0.2-0.5-0.3-0.2-0.1-0.5-0.1h-16.2c-0.5 0-1 0.2-1.3 0.6-0.3 0.4-0.4 0.9-0.3 1.3l16.3 65.8q0 0.1 0 0.1 0.1 0.2 0.2 0.3 0 0.1 0 0.1 0 0.1 0.1 0.1 0.1 0.2 0.2 0.3 0 0 0.1 0 0.1 0.1 0.3 0.2 0.1 0 0.1 0 0.3 0.1 0.5 0.1h13q0.3 0 0.6-0.1 0-0.1 0.1-0.1 0.2-0.1 0.4-0.3 0 0 0.1-0.1 0 0 0 0 0.2-0.3 0.3-0.6l9.5-37 9.5 37.1q0.1 0.3 0.3 0.5 0 0 0 0.1 0.1 0 0.1 0 0.2 0.2 0.4 0.3 0.1 0.1 0.1 0.1 0.3 0.1 0.6 0.1h13q0.2 0 0.4-0.1 0.1 0 0.2 0 0.1-0.1 0.3-0.2 0 0 0.1 0 0.1-0.1 0.2-0.3 0 0 0.1-0.1 0 0 0 0 0.1-0.2 0.2-0.4 0 0 0-0.1l16.2-65.8c0.2-0.4 0-0.9-0.2-1.3z"/></svg>